# xmcd
#
# Track frame offsets:
#	150
#	14288
#	24166
#	36299
#	55837
#	76222
#	95453
#	106974
#	128725
#	137351
# Disc length: 2084 seconds
# Revision: 1
# Processed by: cddbd v1.5.2PL0 Copyright (c) Steve Scherf et al.
#
# Submitted via: libkcddb 0.31
#
DISCID=6e08220a
DTITLE=Mister Leclerc - BLUESY MARIA
DYEAR=2005
DGENRE=Blues
TTITLE0=La maison près de la fontaine
TTITLE1=Cold cold heart
TTITLE2=Love me tender
TTITLE3=Stand by me
TTITLE4=Bluesy Maria
TTITLE5=Que reste t'il de nos amours
TTITLE6=San Francisco bay blues
TTITLE7=La raya
TTITLE8=So lonesome I could cry
TTITLE9=Hasta siempre commandante
EXTD=Blues et Harmonica dans l'Oise
EXTT0=
EXTT1=
EXTT2=
EXTT3=
EXTT4=
EXTT5=
EXTT6=
EXTT7=
EXTT8=
EXTT9=
PLAYORDER=
